<svg width="200" height="200" viewBox="0 0 200 200" fill="none" xmlns="http://www.w3.org/2000/svg">
  <!-- Shield Background -->
  <defs>
    <linearGradient id="shieldGradient" x1="0%" y1="0%" x2="100%" y2="100%">
      <stop offset="0%" stop-color="#647DEE" />
      <stop offset="100%" stop-color="#7F53AC" />
    </linearGradient>
    <filter id="glow" x="-20%" y="-20%" width="140%" height="140%">
      <feGaussianBlur stdDeviation="8" result="blur" />
      <feComposite in="SourceGraphic" in2="blur" operator="over" />
    </filter>
  </defs>
  
  <!-- Shield Shape -->
  <path d="M100 15C100 15 40 40 40 50V110C40 140 65 170 100 185C135 170 160 140 160 110V50C160 40 100 15 100 15Z" fill="url(#shieldGradient)" filter="url(#glow)" />
  
  <!-- Lock Body -->
  <rect x="70" y="85" width="60" height="50" rx="5" fill="#E4E8F0" opacity="0.9" />
  
  <!-- Lock Shackle -->
  <path d="M85 85V65C85 52.3 95.3 42 108 42H92C79.3 42 69 52.3 69 65V85" stroke="#E4E8F0" stroke-width="10" stroke-linecap="round" />
  <path d="M115 85V65C115 52.3 104.7 42 92 42H108C120.7 42 131 52.3 131 65V85" stroke="#E4E8F0" stroke-width="10" stroke-linecap="round" />
  
  <!-- Keyhole -->
  <circle cx="100" cy="110" r="8" fill="#647DEE" />
  <rect x="97" y="110" width="6" height="15" fill="#647DEE" />
</svg>